<?xml version="1.0" standalone="no"?>
<!DOCTYPE svg PUBLIC "-//W3C//DTD SVG 20010904//EN"
 "http://www.w3.org/TR/2001/REC-SVG-20010904/DTD/svg10.dtd">
<svg version="1.0" xmlns="http://www.w3.org/2000/svg"
 width="500.000000pt" height="500.000000pt" viewBox="0 0 500.000000 500.000000"
 preserveAspectRatio="xMidYMid meet">
<metadata>
Created by potrace 1.11, written by Peter Selinger 2001-2013
</metadata>
<g transform="translate(0.000000,500.000000) scale(0.100000,-0.100000)"
fill="#000000" stroke="none">
<path d="M192 4588 l3 -43 178 -3 177 -2 0 -2015 0 -2015 -177 -2 -178 -3 -3
-42 -3 -43 511 0 511 0 -3 43 -3 42 -162 3 -163 2 0 1036 c0 745 3 1035 11
1032 10 -3 122 -239 469 -988 65 -140 202 -435 305 -655 102 -220 189 -406
192 -413 4 -9 -27 -12 -136 -12 l-141 0 0 -45 0 -45 509 0 508 0 16 78 c9 42
124 615 257 1272 132 657 251 1247 264 1310 13 63 26 108 29 100 3 -8 112
-550 242 -1205 130 -655 253 -1272 273 -1373 l37 -182 42 0 c24 0 43 1 43 3 0
1 29 149 66 327 531 2633 644 3189 703 3484 34 164 61 303 61 307 0 5 65 9
145 9 l145 0 0 40 0 40 -345 0 -345 0 0 -40 0 -40 170 0 c94 0 170 -4 170 -9
0 -5 -72 -366 -159 -802 -368 -1831 -510 -2531 -514 -2535 -2 -2 -25 105 -52
238 -42 218 -166 845 -275 1393 -21 110 -105 531 -185 935 -80 405 -145 746
-145 758 0 22 1 22 170 22 l170 0 0 40 0 40 -485 0 -485 0 0 -40 0 -39 137 -3
137 -3 122 -610 122 -610 -209 -1045 c-115 -575 -212 -1052 -216 -1060 -8 -20
-16 21 -198 945 -86 435 -185 936 -220 1115 -196 986 -245 1238 -245 1247 0 7
61 13 165 18 l165 7 0 39 0 39 -485 0 -485 0 0 -39 0 -39 145 -7 c80 -4 145
-11 145 -15 0 -4 11 -62 25 -129 l25 -121 -154 -297 c-85 -164 -195 -377 -245
-473 -50 -96 -168 -325 -263 -507 -94 -183 -178 -333 -185 -333 -11 0 -13 168
-13 935 l0 935 163 2 162 3 3 43 3 42 -511 0 -511 0 3 -42z m1673 -938 c205
-1035 616 -3106 621 -3122 5 -16 -4 -18 -93 -18 l-98 0 -330 693 c-181 380
-368 773 -416 872 -47 99 -161 338 -253 532 l-167 351 64 124 c35 67 103 197
149 288 394 766 412 802 420 783 4 -10 51 -236 103 -503z"/>
</g>
</svg>
